<svg xmlns="http://www.w3.org/2000/svg" width="300" height="200" viewBox="0 0 300 200">
  <rect width="300" height="200" fill="#ffffff" rx="8"/>
  <rect x="1" y="1" width="298" height="198" fill="none" stroke="#e5e7eb" stroke-width="1" rx="8"/>
  <path d="M130,35 L130,90 L170,90 L170,35 Z" fill="#2563eb" opacity="0.8"/>
  <path d="M110,50 L110,90 L130,90 L130,50 Z" fill="#2563eb" opacity="0.6"/>
  <path d="M170,50 L170,90 L190,90 L190,50 Z" fill="#2563eb" opacity="0.6"/>
  <rect x="138" y="45" width="8" height="8" fill="#ffffff" rx="1"/>
  <rect x="154" y="45" width="8" height="8" fill="#ffffff" rx="1"/>
  <rect x="138" y="60" width="8" height="8" fill="#ffffff" rx="1"/>
  <rect x="154" y="60" width="8" height="8" fill="#ffffff" rx="1"/>
  <line x1="150" y1="28" x2="150" y2="35" stroke="#2563eb" stroke-width="2"/>
  <circle cx="150" cy="25" r="4" fill="#2563eb"/>
  <text x="150" y="118" text-anchor="middle" font-family="Arial, sans-serif" font-size="10" font-weight="bold" fill="#2563eb">Caritas Altenpflege</text>
  <text x="150" y="136" text-anchor="middle" font-family="Arial, sans-serif" font-size="10" font-weight="bold" fill="#2563eb">Hamburg</text>
  <text x="150" y="165" text-anchor="middle" font-family="Arial, sans-serif" font-size="11" fill="#6b7280">德国护理机构</text>
  <text x="285" y="193" text-anchor="end" font-family="Arial, sans-serif" font-size="9" fill="rgba(0,0,0,0.15)" font-weight="bold">MOCK</text>
</svg>